<svg id="_0102_traveling" xmlns="http://www.w3.org/2000/svg" xmlns:xlink="http://www.w3.org/1999/xlink" viewBox="0 0 500 500" data-imageid="traveling-69" imageName="Traveling" class="illustrations_image" style="width: 163px;"><defs><style>.cls-1_traveling-69{fill:url(#linear-gradient);}.cls-1_traveling-69,.cls-2_traveling-69,.cls-3_traveling-69,.cls-4_traveling-69,.cls-5_traveling-69,.cls-6_traveling-69,.cls-7_traveling-69,.cls-8_traveling-69,.cls-9_traveling-69,.cls-10_traveling-69,.cls-11_traveling-69{stroke-width:0px;}.cls-2_traveling-69{isolation:isolate;opacity:.18;}.cls-2_traveling-69,.cls-11_traveling-69{fill:#68e1fd;}.cls-3_traveling-69{fill:url(#linear-gradient-4-traveling-69);}.cls-4_traveling-69{fill:url(#linear-gradient-2-traveling-69);}.cls-5_traveling-69{fill:url(#linear-gradient-3-traveling-69);}.cls-6_traveling-69{fill:url(#linear-gradient-7-traveling-69);}.cls-7_traveling-69{fill:url(#linear-gradient-5-traveling-69);}.cls-8_traveling-69{fill:url(#linear-gradient-6-traveling-69);}.cls-9_traveling-69{fill:#3e3e54;}.cls-10_traveling-69{fill:#ffb4a3;}</style><linearGradient id="linear-gradient-traveling-69" x1="814.17" y1="2667.67" x2="854.8" y2="2667.67" gradientTransform="translate(-530.17 2850.86) scale(1 -1)" gradientUnits="userSpaceOnUse"><stop offset=".02" stop-color="#fff" stop-opacity="0"/><stop offset=".58" stop-color="#fff" stop-opacity=".39"/><stop offset=".68" stop-color="#fff" stop-opacity=".68"/><stop offset="1" stop-color="#fff"/></linearGradient><linearGradient id="linear-gradient-2-traveling-69" x1="834.79" y1="2641.91" x2="775.34" y2="2769.67" gradientTransform="translate(-530.17 2850.86) scale(1 -1)" gradientUnits="userSpaceOnUse"><stop offset="0" stop-color="#000" stop-opacity="0"/><stop offset=".99" stop-color="#000"/></linearGradient><linearGradient id="linear-gradient-3-traveling-69" x1="841.5" y1="2738.82" x2="802.55" y2="2792.1" xlink:href="#linear-gradient-traveling-69"/><linearGradient id="linear-gradient-4-traveling-69" x1="729.3" y1="2706.97" x2="823.13" y2="2706.97" xlink:href="#linear-gradient-2-traveling-69"/><linearGradient id="linear-gradient-5-traveling-69" x1="825.35" y1="2777.32" x2="846.52" y2="2733.75" xlink:href="#linear-gradient-2-traveling-69"/><linearGradient id="linear-gradient-6-traveling-69" x1="861.85" y1="2608.85" x2="616.56" y2="2341.01" xlink:href="#linear-gradient-2-traveling-69"/><linearGradient id="linear-gradient-7-traveling-69" x1="822.41" y1="2599.75" x2="924.21" y2="2301.16" xlink:href="#linear-gradient-2-traveling-69"/></defs><path id="background_traveling-69" class="cls-2_traveling-69 targetColor" d="M459.51,310.7c-6.95-27.33-26.13-50.48-32.22-78.02-5.52-25.04.32-51.04.16-76.67-.22-35.71-13.78-72.93-42.54-94.16-28.03-20.72-65.71-23.31-100.26-18.64-34.56,4.67-68.08,15.68-102.8,19.28-15.81,1.64-32,1.77-47.07,6.85-25.38,8.56-44.16,29.99-59.35,52.04-10.79,15.64-20.6,32.44-24.55,51.02-8.24,38.83,10.09,78.42,9.54,118.06-.25,18.74-4.73,37.53-1.96,56.05,4.79,32.14,30.65,57.51,59.21,73.04,39.78,21.64,86.28,28.61,131.54,26.76,75.41-3.14,239.64-20.17,210.31-135.6Z" style="fill: rgb(104, 225, 253);"/><path id="shadow_traveling-69" class="cls-2_traveling-69 targetColor" d="M232.71,396.43c-45.64.57-86.67-2.18-132,1.26,14.14,5.47,35.53,13.68,51.93,14.84,72.91,5.3,146.43,7.07,219.75,5.36,4.98-.12,10.19-.29,14.49-1.92s7.23-5.24,5.14-8.16c-5.95-8.3-50.65-9.21-63.06-9.08-29.04.32-67.25-2.66-96.25-2.3Z" style="fill: rgb(104, 225, 253);"/><g id="suitcase_traveling-69"><path class="cls-11_traveling-69 targetColor" d="M138.65,390.92h0c-.98-.64-1.26-1.95-.63-2.93,0,0,0,0,0,0l83.72-129.59,3.56,2.31-83.72,129.59c-.64.98-1.95,1.26-2.93.63,0,0,0,0,0,0Z" style="fill: rgb(104, 225, 253);"/><path class="cls-11_traveling-69 targetColor" d="M229.59,245.06l-9.87,14.15,5.3,3.83,9.86-13.01c-.74-1.88-3.94-4.99-5.29-4.96Z" style="fill: rgb(104, 225, 253);"/><path class="cls-9_traveling-69" d="M229.59,245.06l-9.87,14.15,5.3,3.83,9.86-13.01c-.74-1.88-3.94-4.99-5.29-4.96Z"/><path class="cls-9_traveling-69" d="M191.46,304.87l-15.07-8.02c-8.22-4.4-18.43-1.63-23.31,6.31l-34.85,56.49c-3.19,5.18-1.62,11.97,3.52,15.23l17.66,11.05,52.06-81.05Z"/><circle class="cls-9_traveling-69" cx="135.89" cy="390.76" r="5.9"/><circle class="cls-11_traveling-69 targetColor" cx="135.88" cy="390.44" r="2.69" style="fill: rgb(104, 225, 253);"/><circle class="cls-11_traveling-69 targetColor" cx="234.69" cy="244.7" r="5.1" style="fill: rgb(104, 225, 253);"/></g><g id="charcacter_traveling-69"><path class="cls-10_traveling-69" d="M216.76,383.62c-.45,1.6-.83,3.38,0,4.84.99,1.74,3.43,2.33,5.46,1.84s4.18-1.41,5.17-3.18c4.19-7.42,14.51-25.81,20.36-38.63,1.64-3.6,5.35-5.3,2.5-8.14-7.04-7.03-18.66,4.08-20.85,10.14-4.01,11.14-9.52,21.62-12.64,33.12Z"/><path class="cls-10_traveling-69" d="M327.28,396.61c1.84,1.29,3.09-4.98,5.16-5.9,3.56-1.59-2.49-41.33-4.82-45.69-4.57-8.48-18.22-10.6-17.65,2.56.17,5.12,15.41,47.72,17.31,49.02Z"/><path class="cls-11_traveling-69 targetColor" d="M282.77,212.94c-5.09,2-9.05,6.11-12.36,10.46-17.33,22.77-20.61,53.96-38.24,76.51-4.53,5.8-10.04,11.1-12.56,18.02-4.73,12.95,4.5,29.06,18.08,31.52,4.62.85,9.61.34,13.78,2.44s6.72,6.23,10.26,9.19c10.28,8.61,26.64,5.08,36.72-3.77,3.87-3.4,7.42-7.62,12.35-9.08,6.36-1.89,13.36,1.39,19.87-.08,7.34-1.65,12.23-9.16,13.02-16.64.79-7.48-1.67-14.9-4.54-21.85-8.37-20.35-20.53-39.71-22.99-61.57-1.06-9.54,1.06-25.17-5.57-33.18-5.37-6.61-20.8-4.71-27.83-1.95Z" style="fill: rgb(104, 225, 253);"/><path class="cls-9_traveling-69" d="M211.31,384.98c-1.04,1.47-1.95,3.03-2.72,4.66-.54.97-.79,2.07-.69,3.18.38,1.31,1.2,2.46,2.32,3.23,3.01,2.47,6.24,4.66,9.65,6.54,4.43,2.51,9.21,4.77,14.37,5.17,2.62.35,5.27-.22,7.51-1.61,2.12-1.49,3.18-4.39,1.99-6.59s-4.3-2.98-6.71-4.24c-6.64-3.34-17.86-21.51-25.73-10.34Z"/><path class="cls-9_traveling-69" d="M326.13,392.13c-.73.4-1.35.97-1.8,1.67-.37.77-.54,1.62-.5,2.48,0,2.51.52,5,1.56,7.29.29.77.78,1.44,1.43,1.94.62.36,1.3.57,2.01.64,6.26.95,12.65.48,18.97,0,2.59-.2,5.46-.54,7.09-2.54,1.43-2.03,1.43-4.75,0-6.78-1.45-1.97-3.59-3.32-5.99-3.77-2.21-.5-4.69.08-6.81-.49-1.66-.45-3.13-1.75-4.92-2.17-3.77-.88-7.73-.26-11.04,1.74Z"/><path class="cls-10_traveling-69" d="M235.73,211.13c-1.11,5.46-1.47,11.09-3.12,16.41-1.76,5.7-4.99,11.09-5.14,17.04-.12,1,.14,2.01.73,2.82,2.65,2.92,10.35-2.85,11.81-5.12,1.65-2.55,2.33-5.6,2.98-8.57l4.58-20.92c.76-3.51,1.59-7.29,3.82-10.21,2.12-2.7,22.62-26.11,21.52-29.91-1.8-6.36-28.19,16.44-31.07,20.34-3.33,4.48-5.02,12.82-6.1,18.12Z"/><path class="cls-11_traveling-69 targetColor" d="M274,158.37c-2.01,8.09-1.06,16.57-.43,24.89.74,9.32,1.14,18.65,1.19,28,0,5.3.12,11.14,3.59,15.15,4.77,5.51,13.46,4.92,20.49,2.95,2.56-.58,4.98-1.66,7.12-3.18,4.62-3.68,5.6-10.19,6.1-16.09,1.41-16.64,1.74-33.35.99-50.03-.49-10.66-4.44-25.32-18.17-24.31-9.67.68-18.77,14.26-20.87,22.62Z" style="fill: rgb(104, 225, 253);"/><path class="cls-1_traveling-69" d="M312.04,210.07c-.5,5.88-1.46,12.41-6.09,16.09-2.14,1.53-4.57,2.61-7.13,3.18-7.02,1.97-15.71,2.56-20.47-2.96-3.48-4.01-3.57-9.83-3.59-15.14,0-5.69-.18-11.37-.48-17.06-.18-3.66-.41-7.31-.7-10.94-.67-8.31-1.59-16.81.43-24.88,1.53-6.15,6.86-15.1,13.4-19.7,2.16-1.64,4.72-2.67,7.42-2.96,13.78-1.06,17.69,13.65,18.17,24.32.77,16.69.45,33.41-.95,50.05Z"/><path class="cls-4_traveling-69" d="M295.18,142.94c-1.62,3.85-3.66,7.51-6.09,10.92-1.2,1.5-2.17,3.17-2.88,4.96-.52,2.14-.63,4.36-.35,6.54.6,9.54-.56,20.24-7.65,26.71-1.09,1.06-2.45,1.79-3.93,2.12-.18-3.66-.41-7.31-.7-10.94-.67-8.31-1.59-16.81.43-24.88,1.53-6.15,6.86-15.1,13.4-19.7,1.06-.11,2.12-.17,3.12-.18,4.51,0,6.6-.28,4.66,4.46Z"/><path class="cls-10_traveling-69" d="M317.58,88.45c.85,5.81,1.66,15.8,2.27,21.63.29,2.81.52,5.82-.83,8.31-1.04,1.76-2.59,3.15-4.45,3.98-1.87.82-3.8,1.47-5.79,1.95-1.69.48-3.51,1.06-4.46,2.58-.6,1.13-.89,2.4-.86,3.68l-.34,5.62c-.1,1.61-1.71,3.18-3.18,3.78-1.54.52-3.2.52-4.74,0-1.37-.36-2.61-1.1-3.59-2.12-1.15-1.48-1.83-3.28-1.95-5.15-.46-4.35-.24-8.75.65-13.04.36-2.1.86-4.18,1.5-6.21.61-1.87,1.41-3.68,2.2-5.49.84-2.07,1.88-4.05,3.11-5.91,1.57-2.06,3.37-3.94,5.36-5.6,1.94-1.94,4.17-3.57,6.6-4.83,2.76-1.29,6.21-5.28,8.49-3.18Z"/><path class="cls-11_traveling-69 targetColor" d="M331.18,76.23c-6.9,6.93-15.05,12.47-23.13,18.02-3.76,2.55-7.53,5.12-11.5,7.34-11.44,6.35-24.17,10.01-37.24,10.7-.6-1.42,1.37-2.8,2.76-3.48l13.01-6.36c.59-.22,1.12-.58,1.53-1.06.45-.85.55-1.83.29-2.76-.87-5.37-2.37-11.17,0-16.06,1.92-3.9,5.89-6.27,9.7-8.37,3.18-1.77,6.78-3.54,10.35-2.79s6.08,3.78,8.18,6.74c.45.78,1.1,1.43,1.87,1.9.56.24,1.17.36,1.78.36,8.3.35,15.23-5.86,22.95-8.87.51-.26,1.1-.34,1.66-.24,1.44.41,1.18,2.69.07,3.72s-1.22.13-2.28,1.2Z" style="fill: rgb(104, 225, 253);"/><path class="cls-5_traveling-69" d="M333.49,75c-1.06,1.06-1.24.16-2.31,1.22-6.91,6.94-15.05,12.48-23.15,18.02-3.76,2.55-7.51,5.11-11.49,7.34-11.44,6.34-24.18,10.01-37.24,10.71-.6-1.43,1.37-2.82,2.76-3.49l13.01-6.36c.59-.23,1.11-.59,1.53-1.06.46-.85.56-1.84.29-2.77-.87-5.37-2.37-11.17,0-16.06,1.91-3.9,5.88-6.27,9.7-8.37,3.18-1.77,6.76-3.54,10.34-2.78s6.09,3.77,8.18,6.73c.46.78,1.1,1.43,1.87,1.9.24.11.49.19.74.24.35.07.7.11,1.06.12,7.48.32,13.87-4.73,20.74-7.92.73-.35,1.47-.66,2.21-.95.51-.26,1.08-.34,1.64-.24,1.49.42,1.22,2.67.12,3.71Z"/><path class="cls-9_traveling-69" d="M312.01,98.21c-5.64,3.89-9.53,9.84-10.81,16.57-.64,3.42-.56,6.94-1.17,10.36-1.4,7.68-6.03,14.38-12.72,18.41-2.56,1.52-5.46,2.66-7.42,4.91s-2.81,5.64-3.42,8.75c-1.93,9.79-3.69,20.14-9.83,27.99-4.35,5.61-10.65,9.39-17.65,10.6-7.02,1.13-14.2-.69-19.84-5.02-4.6-3.79-7.91-8.91-9.46-14.66-2.33-8.14-1.06-18.02,5.71-23.22,3.16-2.23,6.87-3.55,10.74-3.83,2.31-.23,4.98-.39,6.36-2.27.57-.97.94-2.06,1.06-3.18.67-3.34,1.63-6.61,2.85-9.79.92-2.41,2.12-4.87,4.24-6.36s5.04-1.6,7.64-2.27c4.28-1.12,7.98-3.81,10.36-7.53,2.79-4.41,6.61-5.22,10.85-8.26,1.4-1.03,2.88-1.95,4.43-2.73,1.86-.86,3.78-1.57,5.74-2.12,7.79-2.44,16.13-8.17,22.77-12.91-.01,1.25-.41,5.3-.45,6.55Z"/><path class="cls-3_traveling-69" d="M312.01,98.21c-5.64,3.89-9.53,9.84-10.81,16.57-.64,3.42-.56,6.94-1.17,10.36-1.4,7.68-6.03,14.38-12.72,18.41-2.56,1.52-5.46,2.66-7.42,4.91s-2.81,5.64-3.42,8.75c-1.93,9.79-3.69,20.14-9.83,27.99-4.35,5.61-10.65,9.39-17.65,10.6-7.02,1.13-14.2-.69-19.84-5.02-4.6-3.79-7.91-8.91-9.46-14.66-2.33-8.14-1.06-18.02,5.71-23.22,3.16-2.23,6.87-3.55,10.74-3.83,2.31-.23,4.98-.39,6.36-2.27.57-.97.94-2.06,1.06-3.18.67-3.34,1.63-6.61,2.85-9.79.92-2.41,2.12-4.87,4.24-6.36s5.04-1.6,7.64-2.27c4.28-1.12,7.98-3.81,10.36-7.53,2.79-4.41,6.61-5.22,10.85-8.26,1.4-1.03,2.88-1.95,4.43-2.73,1.86-.86,3.78-1.57,5.74-2.12,7.79-2.44,16.13-8.17,22.77-12.91-.01,1.25-.41,5.3-.45,6.55Z"/><path class="cls-10_traveling-69" d="M297.31,140.68c-2.12,2.83-2.41,6.64-1.7,10.09.88,3.4,2.23,6.66,4.01,9.7l19.81,37.61c6.19,11.73,12.6,23.77,22.63,32.45,3.24,2.79,6.8,5.2,10.6,7.17.74.36,1.45.78,2.12,1.26,1.66,1.3,2.51,3.35,3.67,5.12,3.91,5.74,11.01,8.38,17.72,6.61.76-2.76-1.11-5.53-3.18-7.49s-4.56-3.73-5.55-6.41c.22.91,1.14,1.47,2.06,1.25.91-.22,1.47-1.14,1.25-2.06-.21-.57-.58-1.07-1.06-1.44-1.38-1.47-2.94-2.76-4.64-3.85-1.81-1.06-3.86-1.63-5.66-2.68-2.12-1.35-3.99-3.06-5.53-5.04-4.09-4.86-7.67-10.13-10.66-15.74-2.65-4.93-4.85-10.12-7.91-14.84-2.72-4.24-6.13-7.99-8.35-12.48-3.98-8-3.88-17.39-6.61-25.9-1.61-5.03-4.83-12.53-9.41-15.6-4.12-2.72-10.67-1.7-13.59,2.27Z"/><path class="cls-9_traveling-69" d="M321.37,100.09c.25-.01.5.06.71.2.16.17.26.38.3.6.33,1.31.44,2.67.33,4.02-.1,1.23-.71,2.72-1.94,2.71-.5-.04-.98-.24-1.36-.58-1.48-1.19-2.12-3.37-2.94-5.09,0-.05-9.38,1.48-10.16,1.62-1.8.3-2.66.69-1.37-.51,3.74-3.5,11.56-3.25,16.43-2.98Z"/><path class="cls-7_traveling-69" d="M329.55,72.48c-.13.54-.38,1.04-.73,1.46-2.39,2.84-5.09,5.4-8.06,7.62-5.21,4.24-10.45,8.48-15.9,12.4-8.64,6.19-18.55,11.73-29.16,11.29,1.16-1.51,2.43-2.92,3.8-4.24.91-.94,1.96-1.73,3.11-2.36,1.18-.52,2.41-.95,3.66-1.28,5.78-1.8,10.82-5.4,15.51-9.24,1.47,0,4.33-4.24,4.91-5.43s.74-1.89,1.06-2.46c.35.07.7.11,1.06.12,7.49.36,13.88-4.68,20.75-7.87Z"/><path class="cls-8_traveling-69" d="M266.96,272.01c2.88-6.36,6.14-12.61,8.09-19.33,1.95-6.72,2.52-14.07,0-20.6-8.88,12.35-12.23,27.68-16.64,42.23-4.41,14.55-10.71,29.59-23.21,38.27-4.87,3.38-10.92,6.09-13.08,11.66s.57,11.88,5,15.73c4.43,3.85,10.23,5.65,15.9,7.19,5.67,1.54,11.5,2.97,16.35,6.25,4.12,2.8,7.49,6.9,12.23,8.48,7.73,2.54,15.73-2.54,22.18-7.52,3.87-2.99,8.12-7.07,7.23-11.87-7.1,4.02-16.03,2.64-21.59-3.34-5.3-6.05-5.7-14.84-6.17-22.91-.59-10.15-1.77-20.26-3.54-30.28-5.49,7.65-6.1,17.63-6.53,27.05l-.72,16.24c-.18,3.92.78,11.46-2.12,14.55-5.81,6.26-9.65-5.89-9.72-10.33-.21-20.31,8.09-43.31,16.33-61.45Z"/><path class="cls-6_traveling-69" d="M289.23,289.69c2.32,11.92,6.91,23.38,8.48,35.43.7,5.4,1.34,11.8,6.06,14.51,1.46.73,3.01,1.25,4.62,1.52,7.01,1.52,14.66,2.96,21.07-.25,7.51-3.77,10.84-14.14,6.91-21.58l-3.26,8.54c-.39,1.01-.89,2.12-1.92,2.47-1.74.58-3.13-1.47-3.82-3.18l-7.42-18.32c-3.34,5.53.9,12.44,1.14,18.91.11,1.1-.11,2.21-.65,3.18-1.21,1.92-4.11,2.12-6.07.95s-3.18-3.18-4.24-5.17c-12.44-22.96-17.48-49.2-14.42-75.13.39-3.18.9-6.48.4-9.68-.47-2.96-2.12-6.56-5.06-7.64-.41,3.97.34,8-.28,12-.68,4.31-1.9,8.48-2.46,12.85-1.33,10.18-1.03,20.51.9,30.6Z"/></g></svg>